<svg width="50" height="50" viewBox="0 0 50 50" fill="none" xmlns="http://www.w3.org/2000/svg">
<g filter="url(#filter0_d_17_116)">
<path d="M2 12C2 6.34315 2 3.51472 3.75736 1.75736C5.51472 0 8.34315 0 14 0H36C41.6569 0 44.4853 0 46.2426 1.75736C48 3.51472 48 6.34315 48 12V34C48 39.6569 48 42.4853 46.2426 44.2426C44.4853 46 41.6569 46 36 46H14C8.34315 46 5.51472 46 3.75736 44.2426C2 42.4853 2 39.6569 2 34V12Z" fill="white" fill-opacity="0.32" style="fill:white;fill-opacity:0.32;" shape-rendering="crispEdges"/>
<path d="M14 0.5H36C38.8423 0.5 40.9238 0.500754 42.5166 0.714844C44.095 0.927059 45.1184 1.34103 45.8887 2.11133C46.659 2.88162 47.0729 3.90496 47.2852 5.4834C47.4992 7.07616 47.5 9.1577 47.5 12V34C47.5 36.8423 47.4992 38.9238 47.2852 40.5166C47.0729 42.095 46.659 43.1184 45.8887 43.8887C45.1184 44.659 44.095 45.0729 42.5166 45.2852C40.9238 45.4992 38.8423 45.5 36 45.5H14C11.1577 45.5 9.07616 45.4992 7.4834 45.2852C5.90496 45.0729 4.88162 44.659 4.11133 43.8887C3.34103 43.1184 2.92706 42.095 2.71484 40.5166C2.50075 38.9238 2.5 36.8423 2.5 34V12C2.5 9.1577 2.50075 7.07616 2.71484 5.4834C2.92706 3.90496 3.34103 2.88162 4.11133 2.11133C4.88162 1.34103 5.90496 0.927059 7.4834 0.714844C9.07616 0.500754 11.1577 0.5 14 0.5Z" stroke="url(#paint0_linear_17_116)" stroke-opacity="0.7" shape-rendering="crispEdges"/>
<path fill-rule="evenodd" clip-rule="evenodd" d="M33.1264 17.5548C33.3656 17.794 33.4999 18.1185 33.4999 18.4567C33.4999 18.795 33.3656 19.1194 33.1264 19.3586L23.5647 28.9204C23.4383 29.0468 23.2883 29.147 23.1232 29.2154C22.9581 29.2839 22.7811 29.3191 22.6024 29.3191C22.4236 29.3191 22.2467 29.2839 22.0816 29.2154C21.9164 29.147 21.7664 29.0468 21.6401 28.9204L16.8894 24.1706C16.7675 24.0529 16.6704 23.9121 16.6035 23.7565C16.5366 23.6008 16.5014 23.4334 16.5 23.2641C16.4985 23.0947 16.5308 22.9267 16.5949 22.7699C16.6591 22.6131 16.7538 22.4707 16.8736 22.3509C16.9933 22.2311 17.1358 22.1364 17.2926 22.0723C17.4493 22.0081 17.6173 21.9759 17.7867 21.9773C17.9561 21.9788 18.1235 22.014 18.2791 22.0808C18.4348 22.1477 18.5755 22.2449 18.6932 22.3667L22.6019 26.2755L31.3217 17.5548C31.4402 17.4363 31.5809 17.3422 31.7357 17.2781C31.8905 17.2139 32.0565 17.1809 32.2241 17.1809C32.3917 17.1809 32.5576 17.2139 32.7125 17.2781C32.8673 17.3422 33.0079 17.4363 33.1264 17.5548Z" fill="#339094" style="fill:#339094;fill:color(display-p3 0.1984 0.5631 0.5785);fill-opacity:1;"/>
</g>
<defs>
<filter id="filter0_d_17_116" x="0" y="0" width="50" height="50" filterUnits="userSpaceOnUse" color-interpolation-filters="sRGB">
<feFlood flood-opacity="0" result="BackgroundImageFix"/>
<feColorMatrix in="SourceAlpha" type="matrix" values="0 0 0 0 0 0 0 0 0 0 0 0 0 0 0 0 0 0 127 0" result="hardAlpha"/>
<feOffset dy="2"/>
<feGaussianBlur stdDeviation="1"/>
<feComposite in2="hardAlpha" operator="out"/>
<feColorMatrix type="matrix" values="0 0 0 0 0.0825166 0 0 0 0 0.210921 0 0 0 0 0.216346 0 0 0 0.15 0"/>
<feBlend mode="normal" in2="BackgroundImageFix" result="effect1_dropShadow_17_116"/>
<feBlend mode="normal" in="BackgroundImageFix" in2="effect1_dropShadow_17_116" result="BackgroundImageFix"/>
<feBlend mode="normal" in="SourceGraphic" in2="BackgroundImageFix" result="shape"/>
</filter>
<linearGradient id="paint0_linear_17_116" x1="19.7907" y1="20.1229" x2="48.4225" y2="51.3576" gradientUnits="userSpaceOnUse">
<stop stop-color="#4CA0A3" style="stop-color:#4CA0A3;stop-color:color(display-p3 0.2992 0.6256 0.6394);stop-opacity:1;"/>
<stop offset="1" stop-color="#72B9BC" stop-opacity="0.1" style="stop-color:#72B9BC;stop-color:color(display-p3 0.4471 0.7255 0.7373);stop-opacity:0.1;"/>
</linearGradient>
</defs>
</svg>
